<svg width="16" height="16" viewBox="0 0 16 16" fill="none" xmlns="http://www.w3.org/2000/svg">
<path fill-rule="evenodd" clip-rule="evenodd" d="M11.5845 0H4.41553C1.98096 0 0 1.98071 0 4.41553V11.5845C0 14.0193 1.98096 16 4.41553 16H11.5845C14.019 16 16 14.0193 16 11.5845V4.41553C16 1.98071 14.019 0 11.5845 0ZM7.99951 3.87744C5.72656 3.87744 3.87695 5.72681 3.87695 8.00024C3.87695 10.2734 5.72656 12.1228 7.99951 12.1228C10.2729 12.1228 12.1226 10.2734 12.1226 8.00024C12.1226 5.72681 10.2729 3.87744 7.99951 3.87744ZM7.99951 10.7031C6.50928 10.7031 5.29639 9.49072 5.29639 8.00024C5.29639 6.50952 6.50928 5.29688 7.99951 5.29688C9.49023 5.29688 10.7031 6.50952 10.7031 8.00024C10.7031 9.49072 9.49023 10.7031 7.99951 10.7031ZM11.5605 2.97827C11.7539 2.78442 12.0225 2.67358 12.2959 2.67358C12.4419 2.67358 12.5859 2.70483 12.7183 2.76318C12.835 2.8147 12.9419 2.88745 13.0322 2.97827C13.2261 3.17139 13.3369 3.44019 13.3369 3.7146C13.3369 3.98804 13.2261 4.25684 13.0322 4.45093C12.8384 4.64404 12.5703 4.75562 12.2959 4.75562C12.0225 4.75562 11.7534 4.64404 11.5605 4.45093C11.4438 4.33423 11.3569 4.19067 11.3062 4.0354C11.2725 3.93213 11.2549 3.82373 11.2549 3.7146C11.2549 3.44019 11.3667 3.17139 11.5605 2.97827Z" fill="black"/>
</svg>
