<svg width="14" height="11" viewBox="0 0 14 11" fill="none" xmlns="http://www.w3.org/2000/svg">
<path d="M12.7495 10.4535C13.0642 10.4535 13.3369 10.3548 13.5687 10.1598L9.60233 6.39029C9.50716 6.45505 9.41493 6.51802 9.3278 6.57791C9.03097 6.78573 8.79007 6.94791 8.60508 7.06412C8.42012 7.18059 8.17403 7.29931 7.86684 7.42052C7.55944 7.54188 7.27306 7.60236 7.0074 7.60236H6.99185C6.72616 7.60236 6.43978 7.5419 6.13241 7.42052C5.82504 7.29931 5.57895 7.18059 5.39417 7.06412C5.20921 6.94791 4.96843 6.78576 4.67145 6.57791C4.5887 6.52025 4.49691 6.45699 4.39769 6.38928L0.430587 10.1598C0.662367 10.3548 0.935221 10.4535 1.24989 10.4535H12.7495Z" fill="black"/>
<path d="M0.789129 4.01657C0.492332 3.82852 0.229137 3.61316 0 3.37057V9.10554L3.49591 5.78326C2.79653 5.31924 1.89542 4.73102 0.789129 4.01657Z" fill="black"/>
<path d="M13.2185 4.01657C12.1544 4.70102 11.25 5.29025 10.5052 5.78458L13.9997 9.10569V3.37057C13.7756 3.60828 13.5153 3.8235 13.2185 4.01657Z" fill="black"/>
<path d="M12.7499 0H1.25035C0.849165 0 0.540727 0.128745 0.324655 0.385971C0.108405 0.643317 0.000458071 0.965156 0.000458071 1.35113C0.000458071 1.66289 0.14371 2.0007 0.430086 2.36464C0.716462 2.72844 1.02119 3.01419 1.34412 3.22204C1.52115 3.34091 2.05501 3.69362 2.94571 4.28005C3.42653 4.5967 3.84466 4.87269 4.20399 5.11086C4.51027 5.31366 4.7744 5.48929 4.99248 5.63504C5.01752 5.65173 5.05689 5.6785 5.10915 5.714C5.16545 5.75243 5.23669 5.8012 5.32458 5.86152C5.49384 5.97785 5.63445 6.07188 5.74643 6.14372C5.85827 6.21558 5.99377 6.29585 6.15273 6.38498C6.31156 6.47399 6.46137 6.54092 6.60198 6.58544C6.74261 6.62993 6.8728 6.65225 6.99257 6.65225H7.00812C7.12786 6.65225 7.25807 6.62993 7.39873 6.58544C7.53932 6.54092 7.689 6.47413 7.84796 6.38498C8.00676 6.29585 8.14209 6.21541 8.25428 6.14372C8.36627 6.07188 8.50688 5.97787 8.67615 5.86152C8.76387 5.8012 8.83511 5.75241 8.89141 5.71412C8.9437 5.67847 8.98304 5.65188 9.00823 5.63504C9.17812 5.5227 9.44287 5.34779 9.79881 5.11291C10.4465 4.68525 11.4003 4.0558 12.6644 3.22204C13.0446 2.9697 13.3622 2.66518 13.6174 2.30892C13.8723 1.95266 14 1.57896 14 1.18794C14 0.861242 13.8761 0.581698 13.629 0.348869C13.3815 0.11633 13.0885 0 12.7499 0Z" fill="black"/>
</svg>
