<svg width="11" height="14" viewBox="0 0 11 14" fill="none" xmlns="http://www.w3.org/2000/svg">
<path d="M5.86469 0C3.09451 0 0.84082 2.14167 0.84082 4.77412C0.84082 8.04108 5.33669 12.8372 5.52811 13.0397C5.7079 13.23 6.02181 13.2297 6.20128 13.0397C6.39269 12.8372 10.8886 8.04108 10.8886 4.77412C10.8885 2.14167 8.63485 0 5.86469 0ZM5.86469 7.17612C4.47095 7.17612 3.33708 6.09859 3.33708 4.77412C3.33708 3.44966 4.47097 2.37215 5.86469 2.37215C7.25841 2.37215 8.39228 3.44968 8.39228 4.77415C8.39228 6.09861 7.25841 7.17612 5.86469 7.17612Z" fill="black"/>
</svg>
