<svg width="20" height="20" viewBox="0 0 20 20" fill="none" xmlns="http://www.w3.org/2000/svg">
<path d="M7.86465 1.49342C7.40755 1.5025 7.01933 1.66695 6.70016 1.98612L1.9862 6.70008C1.66694 7.01934 1.50274 7.40749 1.49341 7.86466C1.48396 8.32172 1.63253 8.70358 1.93893 9.00997L10.99 18.061C11.2963 18.3674 11.6781 18.5159 12.1353 18.5065C12.5925 18.4972 12.9807 18.333 13.2999 18.0138L18.0139 13.2998C18.333 12.9807 18.4973 12.5922 18.5065 12.1353C18.5159 11.6782 18.3674 11.2963 18.061 10.9899L9.01 1.93891C8.7036 1.63251 8.32199 1.48393 7.86465 1.49342ZM4.73794 6.21096L6.21121 4.73769C6.30944 4.63946 6.40558 4.63763 6.49988 4.73193C6.59414 4.82619 6.59234 4.92242 6.49414 5.02062L5.02087 6.49389C4.92267 6.59209 4.82635 6.59399 4.73208 6.49972C4.63775 6.40546 4.63971 6.30919 4.73794 6.21096ZM15.5453 14.5045C15.5393 14.7872 15.4352 15.0298 15.2326 15.2325C15.0301 15.435 14.7874 15.5391 14.5048 15.545C14.2219 15.5507 13.9833 15.4563 13.789 15.262C13.5944 15.0675 13.5002 14.8288 13.5059 14.5461C13.5118 14.2636 13.6158 14.0206 13.8182 13.8181C14.0209 13.6154 14.2638 13.5116 14.5464 13.5056C14.8292 13.4998 15.0677 13.5942 15.2622 13.7887C15.4567 13.9833 15.5509 14.2218 15.5453 14.5045ZM15.7631 10.4595C15.8396 10.536 15.877 10.6317 15.8745 10.7459C15.872 10.8603 15.8309 10.9571 15.7513 11.0368L11.0371 15.7509C10.9573 15.8307 10.8603 15.8718 10.7461 15.8743C10.632 15.8767 10.5363 15.8394 10.4598 15.7629L4.23729 9.54034C4.1607 9.46375 4.12348 9.36829 4.1259 9.25404C4.12836 9.13982 4.16923 9.04267 4.24901 8.96289L8.96297 4.24893C9.04288 4.16901 9.13985 4.12808 9.25425 4.12569C9.3686 4.12323 9.4639 4.16055 9.54049 4.23714L15.763 10.4596L15.7631 10.4595L15.7631 10.4595Z" fill="white"/>
</svg>
