<svg width="14" height="14" viewBox="0 0 14 14" fill="none" xmlns="http://www.w3.org/2000/svg">
<path d="M10.6711 8.72038C10.2179 8.2952 9.65217 8.2952 9.20186 8.72038C8.85835 9.04407 8.51485 9.36776 8.17712 9.69693C8.08475 9.78745 8.00681 9.80665 7.89423 9.74631C7.67196 9.6311 7.43526 9.53783 7.22165 9.41165C6.22578 8.81639 5.39155 8.05106 4.65258 7.18972C4.28598 6.7618 3.9598 6.3037 3.73175 5.78799C3.68557 5.68376 3.69423 5.61518 3.78371 5.53014C4.12722 5.21468 4.46206 4.891 4.7998 4.56731C5.27031 4.11744 5.27031 3.59076 4.79691 3.13815C4.52846 2.88029 4.26 2.62793 3.99155 2.37007C3.71444 2.10674 3.44021 1.84065 3.16021 1.58006C2.70701 1.16036 2.14124 1.16036 1.69093 1.5828C1.34454 1.90649 1.01258 2.2384 0.660414 2.55661C0.334228 2.85012 0.169692 3.20947 0.135053 3.62916C0.0802076 4.3122 0.25629 4.95683 0.504538 5.585C1.01258 6.88524 1.78619 8.04009 2.72433 9.09893C3.99155 10.5308 5.50413 11.6637 7.27361 12.4812C8.07031 12.8488 8.89588 13.1313 9.79361 13.1779C10.4113 13.2109 10.9483 13.0627 11.3784 12.6046C11.6728 12.2919 12.0047 12.0066 12.3165 11.7076C12.7784 11.2632 12.7812 10.7256 12.3223 10.2867C11.7738 9.76276 11.2225 9.24157 10.6711 8.72038Z" fill="black"/>
<path d="M10.1197 6.53409L11.1849 6.36128C11.0175 5.43136 10.5556 4.58923 9.85417 3.91991C9.11231 3.21493 8.17417 2.77054 7.14076 2.63339L6.99066 3.65108C7.79025 3.75806 8.51767 4.10095 9.0921 4.64683C9.63479 5.16254 9.98984 5.8154 10.1197 6.53409Z" fill="black"/>
<path d="M11.7854 2.13414C10.5557 0.965576 8.99979 0.227678 7.28227 0L7.13216 1.0177C8.61587 1.2152 9.96103 1.85434 11.0233 2.86107C12.0307 3.81841 12.6918 5.02813 12.9313 6.35854L13.9965 6.18572C13.7165 4.64409 12.9515 3.2451 11.7854 2.13414Z" fill="black"/>
</svg>
