<svg width="18" height="16" viewBox="0 0 18 16" fill="none" xmlns="http://www.w3.org/2000/svg">
<path d="M14.1072 16C13.9703 16 13.8344 15.9586 13.7177 15.8779L9.31155 12.8271L6.94831 14.5628C6.76297 14.6989 6.52407 14.7332 6.30886 14.6546C6.09392 14.5759 5.93068 14.3941 5.87241 14.1688L4.6858 9.57852L0.445898 7.92365C0.178979 7.81943 0.00195837 7.55877 1.61397e-05 7.26705C-0.00192609 6.97533 0.17158 6.71222 0.437204 6.60431L16.5589 0.0562316C16.632 0.0245108 16.7094 0.0061957 16.7875 0.00128652C16.8154 -0.000412805 16.8434 -0.000412753 16.8713 0.00119217C17.033 0.0110105 17.1918 0.0782284 17.3157 0.202279C17.3285 0.215119 17.3407 0.228241 17.3523 0.24193C17.455 0.361639 17.5114 0.507592 17.522 0.656284C17.5246 0.693669 17.5244 0.731526 17.5212 0.769383C17.519 0.796384 17.5152 0.82329 17.5098 0.850007L14.7886 15.4245C14.7448 15.6586 14.5887 15.8546 14.373 15.9459C14.2875 15.9822 14.1971 16 14.1072 16ZM9.69843 11.3838L13.6233 14.1013L15.7407 2.76071L8.09321 10.2723L9.67993 11.371C9.68631 11.3751 9.69241 11.3794 9.69843 11.3838ZM6.43113 10.7795L6.95664 12.8121L8.08887 11.9804L6.6063 10.9538C6.53739 10.9063 6.47839 10.847 6.43113 10.7795ZM2.60224 7.24902L5.51356 8.38521C5.72212 8.46659 5.87953 8.64559 5.9365 8.86593L6.30571 10.2942C6.32264 10.1295 6.39579 9.97446 6.51464 9.85768L13.8016 2.70029L2.60224 7.24902Z" fill="black"/>
</svg>
