<svg width="16" height="16" viewBox="0 0 16 16" fill="none" xmlns="http://www.w3.org/2000/svg">
<path d="M13.6974 1.78997C12.4305 0.550019 10.3822 -0.0507801 7.60846 0.0033574C4.81162 0.0582703 2.94208 0.548327 1.72493 1.54564C0.548096 2.50982 0 3.92071 0 5.98576V8.09332C0 10.5312 1.3086 13.2114 3.80963 13.6169C4.09837 13.6641 4.37037 13.4681 4.41725 13.1798C4.46414 12.8916 4.26812 12.62 3.97938 12.5732C2.08265 12.2656 1.05919 10.0355 1.05919 8.09332V5.98576C1.05919 3.02469 2.15828 1.16788 7.62922 1.06045C10.1095 1.01139 11.8997 1.51124 12.9557 2.54493C13.7787 3.35058 14.1788 4.47605 14.1788 5.98576V8.09332C14.1788 11.2848 12.7439 12.6924 9.06357 13.1069H6.45387C6.31342 13.1069 6.17869 13.1626 6.07941 13.2618L4.24058 15.0974C4.03375 15.3039 4.03375 15.6387 4.24058 15.8451C4.34396 15.9483 4.47953 16 4.61504 16C4.75054 16 4.88612 15.9484 4.9895 15.8451L6.67326 14.1643H9.09316C9.11265 14.1643 9.13221 14.1632 9.15163 14.161C11.2579 13.9275 12.7002 13.3803 13.6905 12.4388C14.7319 11.4488 15.2381 10.0274 15.2381 8.09325V5.98576C15.2381 4.2024 14.7197 2.79073 13.6974 1.78997Z" fill="black"/>
<path d="M8.12527 3.2977C8.12534 3.2977 8.12534 3.2977 8.12547 3.2977C8.94091 3.2977 9.70756 3.61531 10.2842 4.19195C10.8609 4.76866 11.1785 5.53544 11.1784 6.35101C11.1784 6.63049 11.405 6.85707 11.6844 6.85707C11.6845 6.85707 11.6845 6.85707 11.6845 6.85707C11.964 6.85707 12.1906 6.63056 12.1906 6.35108C12.1906 5.26514 11.7678 4.24417 10.9999 3.47631C10.2321 2.70844 9.21135 2.28564 8.12547 2.28564C8.12541 2.28564 8.1252 2.28564 8.12514 2.28564C7.84565 2.28564 7.61914 2.51223 7.61914 2.79171C7.61921 3.07112 7.84579 3.2977 8.12527 3.2977Z" fill="black"/>
<path d="M8.03339 5.40017C8.60834 5.40028 9.07618 5.86808 9.07624 6.44298C9.07629 6.6718 9.26174 6.8573 9.4906 6.85725C9.71947 6.85725 9.90491 6.67169 9.90486 6.44287C9.90469 5.41116 9.06524 4.5717 8.0335 4.57153H8.03345C7.80464 4.57153 7.6192 4.75698 7.61914 4.9858C7.61914 5.21461 7.80459 5.40017 8.03339 5.40017Z" fill="black"/>
<path d="M5.4752 6.13098C5.24818 6.28622 5.18995 6.5961 5.34513 6.82312C5.5003 7.05013 5.81025 7.1083 6.03727 6.95312C6.21581 6.83108 6.63399 6.54517 6.60464 5.97362C6.58605 5.63154 6.2775 5.14311 6.02193 4.79359C5.6481 4.2822 5.32594 3.97418 5.06639 3.8787C4.82403 3.78846 4.57059 3.78654 4.31256 3.87312C3.77812 4.05319 3.39009 4.37861 3.19049 4.81418C2.99614 5.2382 3.00046 5.72549 3.20304 6.22368C3.68151 7.39746 4.35134 8.4251 5.19839 9.28243C6.05128 10.125 7.07886 10.7948 8.25312 11.2735C8.50723 11.3769 8.75861 11.4286 9.00024 11.4286C9.23197 11.4286 9.45473 11.3811 9.6623 11.2859C10.0979 11.0863 10.4232 10.6983 10.6035 10.1632C10.6898 9.90578 10.6879 9.65247 10.5984 9.41178C10.5022 9.15037 10.1941 8.82827 9.68281 8.45445C9.33322 8.19888 8.8448 7.89033 8.50138 7.87168C7.93102 7.84299 7.64537 8.26044 7.52333 8.43898C7.36809 8.666 7.42619 8.97587 7.65321 9.13118C7.88029 9.28648 8.19011 9.22832 8.34541 9.00131C8.39959 8.92209 8.43054 8.8861 8.44826 8.87037C8.7278 8.95994 9.52492 9.54557 9.66841 9.77C9.67192 9.78434 9.67272 9.80618 9.65944 9.84595C9.59663 10.0325 9.47412 10.2766 9.24737 10.3806C9.03496 10.4778 8.7936 10.4182 8.6288 10.3512C7.57658 9.92218 6.65796 9.32427 5.90261 8.57815C5.15224 7.81862 4.55432 6.90001 4.12558 5.84819C4.05839 5.683 3.9987 5.44151 4.09597 5.2293C4.19988 5.00255 4.4441 4.87998 4.63001 4.8173C4.66972 4.80402 4.69157 4.80475 4.7067 4.8084C4.9312 4.95215 5.5165 5.7488 5.60614 6.0284C5.59034 6.04586 5.55442 6.07687 5.4752 6.13098Z" fill="black"/>
</svg>
